<svg width="50" height="50" viewBox="0 0 50 50" fill="none" xmlns="http://www.w3.org/2000/svg">
<path d="M6.25 20.5294C6.25 18.3961 7.9794 16.6667 10.1127 16.6667V16.6667C11.5758 16.6667 12.9133 15.8401 13.5676 14.5315L15.5611 10.5445C16.099 9.46869 16.368 8.93077 16.8513 8.63207C17.3346 8.33337 17.936 8.33337 19.1388 8.33337H30.8612C32.064 8.33337 32.6654 8.33337 33.1487 8.63207C33.632 8.93077 33.901 9.46869 34.4389 10.5445L36.4324 14.5315C37.0867 15.8401 38.4242 16.6667 39.8873 16.6667V16.6667C42.0206 16.6667 43.75 18.3961 43.75 20.5294V35.6667C43.75 38.4951 43.75 39.9093 42.8713 40.788C41.9926 41.6667 40.5784 41.6667 37.75 41.6667H12.25C9.42157 41.6667 8.00736 41.6667 7.12868 40.788C6.25 39.9093 6.25 38.4951 6.25 35.6667V20.5294Z" stroke="#222222"/>
<circle cx="25" cy="27.0833" r="7.83333" stroke="#222222"/>
</svg>
